<svg xmlns="http://www.w3.org/2000/svg" viewBox="0 0 100 100">
  <title>⬣ Hexplode</title>


  <rect x="-9999" y="-9999" width="99999" height="99999" />

  <a target="_blank" class="github-corner" href="https://github.com/414owen/hexplode-svg" aria-label="View source on GitHub" transform="scale(0.05) translate(1750 0)"><path fill="white" d="M0,0 L115,115 L130,115 L142,142 L250,250 L250,0 Z"></path><path d="M128.3,109.0 C113.8,99.7 119.0,89.6 119.0,89.6 C122.0,82.7 120.5,78.6 120.5,78.6 C119.2,72.0 123.4,76.3 123.4,76.3 C127.3,80.9 125.5,87.3 125.5,87.3 C122.9,97.6 130.6,101.9 134.4,103.2" fill="currentColor" style="transform-origin:130px 106px;" class="octo-arm"></path><path d="M115.0,115.0 C114.9,115.1 118.7,116.5 119.8,115.4 L133.7,101.6 C136.9,99.2 139.9,98.4 142.2,98.6 C133.8,88.0 127.5,74.4 143.8,58.0 C148.5,53.4 154.0,51.2 159.7,51.0 C160.3,49.4 163.2,43.6 171.4,40.1 C171.4,40.1 176.1,42.5 178.8,56.2 C183.1,58.6 187.2,61.8 190.9,65.4 C194.5,69.0 197.7,73.2 200.1,77.6 C213.8,80.2 216.3,84.9 216.3,84.9 C212.7,93.1 206.9,96.0 205.4,96.6 C205.1,102.4 203.0,107.8 198.3,112.5 C181.9,128.9 168.3,122.5 157.7,114.1 C157.9,116.9 156.7,120.9 152.7,124.9 L141.0,136.5 C139.8,137.7 141.6,141.9 141.8,141.8 Z" fill="#000" class="octo-body"></path></a>
  <style>

    #orig {
      display: none;
    }

    circle {
      opacity: 0;
      animation-duration: 0.8s;
      animation-fill-mode: forwards;
      animation-timing-function: ease-in-out;
      fill: #000;
    }

    #main circle {
      opacity: 1;
      animation-name: bob-out;
    }

    .hex {
      opacity: 0;
      transition: opacity 1s;
      animation-name: fade-in;
      animation-duration: 0.8s;
      animation-fill-mode: forwards;
      animation-timing-function: ease-in-out;
    }

    .init circle {
      animation-duration: 0s;
    }

    #main .one   circle.one,
    #main .two   circle.two,
    #main .three circle.three,
    #main .four  circle.four,
    #main .five  circle.five,
    #main .six   circle.six,
    #main .seven circle.seven,
    #main .eight circle.eight,
    #main .nine  circle.nine {
      animation-name: bob-in;
    }

    @keyframes bob-in {
      0%   { transform: scale(0);     }
      20%  { transform: scale(1.2);     }
      40%  { transform: scale(0.9);   }
      60%  { transform: scale(1.05);  }
      80%  { transform: scale(0.975); }
      100% { transform: scale(1);     }
    }

    @keyframes bob-out{
      0%   { transform: scale(1); }
      100% { transform: scale(0); }
    }

    @keyframes focus {
      0%   { transform: scale(7); }
      100% { transform: scale(8); }
    }

    @keyframes fade-in {
      0%   { opacity: 0;   }
      1%   { opacity: 0.4; }
      100% { opacity: 1;   }
    }

    .hex {
      cursor: pointer;
    }

    text {
      font-family: sans-serif;
      font-size: 4px;
    }

    /* red */
    .p0 > #indicator, .p0 > circle { fill: #E53935; }
    /* blue */
    .p1 > #indicator, .p1 > circle { fill: #1E88E5; }
    /* teal */
    .p2 > #indicator, .p2 > circle { fill: #00897B; }
    /* amber */
    .p3 > #indicator, .p3 > circle { fill: #FFB300; }
    /* brown*/
    .p4 > #indicator, .p4 > circle { fill: #6D4C41; }
    /* grey-blue */
    .p5 > #indicator, .p5 > circle { fill: #546E7A; }
    /* purple */
    .p6 > #indicator, .p6 > circle { fill: #7B1FA2; }
    /* black */
    .p7 > #indicator, .p7 > circle { fill: #000; }
    /* pink */
    .p8 > #indicator, .p8 > circle { fill: #E68DD0; }

    .menu .hex:hover circle { fill: #f66; }

    @keyframes bob {
      0%   { opacity: 1;   }
      50%  { opacity: 0.7; }
      100% { opacity: 1;   }
    }

    .game-over .hex {
      animation-name: bob;
      animation-iteration-count: infinite;
      animation-duration: 4s;
    }

    .game-over #board {
      opacity: 0.4;
    }

    line, text {
      fill: #fff;
    }

    text {
      stroke-width: 0.1px;
      text-anchor: middle;
      dominant-baseline: middle;
    }

    text.center {
      transform: translate(50px, 50px);
    }

    text.bottom {
      transform: translate(50px, 96px);
    }

    text.left {
      text-anchor: start;
      transform: translate(8px, 96px);
    }

    #indicator {
      animation: none;
      stroke: #fff;
      stroke-width: 8;
      transform: translate(4.5px, 95.5px) scale(0.05);
    }

    .game-over #indicator {
      display: none;
    }

  </style>

  <g id="main">
    <g id="board">
      <g id="orig" class="hex zero init">
        <path fill="#fff" stroke-width="3" stroke="#000" d="M-50 0l25 43.3l50 0l25 -43.34l-25 -43.3l-50 0z"/>
        <circle r="7" class="one three five seven nine" cx="0" cy="0"/>
        <circle r="7" class="two three four five six seven eight nine" cx="-16" cy="-16"/>
        <circle r="7" class="two three four five six seven eight nine" cx="16" cy="16"/>
        <circle r="7" class="four five six seven eight nine" cx="-16" cy="16"/>
        <circle r="7" class="four five six seven eight nine" cx="16" cy="-16"/>
        <circle r="7" class="six seven eight nine" cx="-16" cy="0"/>
        <circle r="7" class="six seven eight nine" cx="16" cy="0"/>
        <circle r="7" class="eight nine" cx="0" cy="-16"/>
        <circle r="7" class="eight nine" cx="0" cy="16"/>
      </g>
    </g>
  </g>

  <script type="text/javascript" href="./hex.js"></script>
</svg>
